<svg width="36" height="36" viewBox="0 0 36 36" fill="none" xmlns="http://www.w3.org/2000/svg">
<path d="M29.25 6.75V11.25H6.75V6.75H29.25ZM29.25 4.5H6.75C6.15326 4.5 5.58097 4.73705 5.15901 5.15901C4.73705 5.58097 4.5 6.15326 4.5 6.75V11.25C4.5 11.8467 4.73705 12.419 5.15901 12.841C5.58097 13.2629 6.15326 13.5 6.75 13.5H29.25C29.8467 13.5 30.419 13.2629 30.841 12.841C31.2629 12.419 31.5 11.8467 31.5 11.25V6.75C31.5 6.15326 31.2629 5.58097 30.841 5.15901C30.419 4.73705 29.8467 4.5 29.25 4.5ZM11.25 18V29.25H6.75V18H11.25ZM11.25 15.75H6.75C6.15326 15.75 5.58097 15.9871 5.15901 16.409C4.73705 16.831 4.5 17.4033 4.5 18V29.25C4.5 29.8467 4.73705 30.419 5.15901 30.841C5.58097 31.2629 6.15326 31.5 6.75 31.5H11.25C11.8467 31.5 12.419 31.2629 12.841 30.841C13.2629 30.419 13.5 29.8467 13.5 29.25V18C13.5 17.4033 13.2629 16.831 12.841 16.409C12.419 15.9871 11.8467 15.75 11.25 15.75ZM29.25 18V29.25H18V18H29.25ZM29.25 15.75H18C17.4033 15.75 16.831 15.9871 16.409 16.409C15.9871 16.831 15.75 17.4033 15.75 18V29.25C15.75 29.8467 15.9871 30.419 16.409 30.841C16.831 31.2629 17.4033 31.5 18 31.5H29.25C29.8467 31.5 30.419 31.2629 30.841 30.841C31.2629 30.419 31.5 29.8467 31.5 29.25V18C31.5 17.4033 31.2629 16.831 30.841 16.409C30.419 15.9871 29.8467 15.75 29.25 15.75Z" fill="#6B7280"/>
</svg>
