<svg width="36" height="36" viewBox="0 0 36 36" fill="none" xmlns="http://www.w3.org/2000/svg">
<path d="M27.66 3.09H8.34C7.74326 3.09 7.17096 3.32705 6.74901 3.74901C6.32705 4.17096 6.09 4.74326 6.09 5.34V12.09C6.09 12.2889 6.16901 12.4797 6.30967 12.6203C6.45032 12.761 6.64108 12.84 6.84 12.84C7.03891 12.84 7.22967 12.761 7.37033 12.6203C7.51098 12.4797 7.59 12.2889 7.59 12.09V10.59H15V31.41H12C11.8011 31.41 11.6103 31.489 11.4697 31.6297C11.329 31.7703 11.25 31.9611 11.25 32.16C11.25 32.3589 11.329 32.5497 11.4697 32.6903C11.6103 32.831 11.8011 32.91 12 32.91H24C24.1989 32.91 24.3897 32.831 24.5303 32.6903C24.671 32.5497 24.75 32.3589 24.75 32.16C24.75 31.9611 24.671 31.7703 24.5303 31.6297C24.3897 31.489 24.1989 31.41 24 31.41H21V10.59H28.41V12.09C28.41 12.2889 28.489 12.4797 28.6297 12.6203C28.7703 12.761 28.9611 12.84 29.16 12.84C29.3589 12.84 29.5497 12.761 29.6903 12.6203C29.831 12.4797 29.91 12.2889 29.91 12.09V5.34C29.91 4.74326 29.6729 4.17096 29.251 3.74901C28.829 3.32705 28.2567 3.09 27.66 3.09ZM28.41 9.09H21C20.6022 9.09 20.2206 9.24803 19.9393 9.52934C19.658 9.81064 19.5 10.1922 19.5 10.59V31.41H16.5V10.59C16.5 10.1922 16.342 9.81064 16.0607 9.52934C15.7794 9.24803 15.3978 9.09 15 9.09H7.59V5.34C7.59 5.14108 7.66901 4.95032 7.80967 4.80967C7.95032 4.66901 8.14108 4.59 8.34 4.59H27.66C27.8589 4.59 28.0497 4.66901 28.1903 4.80967C28.331 4.95032 28.41 5.14108 28.41 5.34V9.09Z" fill="#6B7280"/>
</svg>
