<svg width="36" height="36" viewBox="0 0 36 36" fill="none" xmlns="http://www.w3.org/2000/svg">
<path d="M8.712 30C8.364 30 8.075 29.885 7.845 29.655C7.615 29.425 7.5 29.136 7.5 28.788V27.258C7.5 26.934 7.565 26.6195 7.695 26.3145C7.825 26.0095 7.9995 25.7485 8.2185 25.5315L27.321 6.438C27.486 6.273 27.66 6.159 27.843 6.096C28.026 6.033 28.208 6.001 28.389 6C28.578 6 28.767 6.032 28.956 6.096C29.146 6.159 29.311 6.273 29.451 6.438L31.0605 8.049C31.2255 8.189 31.34 8.354 31.404 8.544C31.467 8.733 31.4985 8.9215 31.4985 9.1095C31.4985 9.2925 31.467 9.4755 31.404 9.6585C31.341 9.8415 31.226 10.0155 31.059 10.1805L11.97 29.28C11.752 29.498 11.491 29.672 11.187 29.802C10.883 29.932 10.5685 29.998 10.2435 30H8.712ZM9 28.5H10.6095L26.4435 12.675L25.653 11.847L24.825 11.0565L9 26.8905V28.5ZM25.653 11.847L24.825 11.0565L26.4435 12.675L25.653 11.847ZM21.4035 30C23.0615 30 24.601 29.605 26.022 28.815C27.443 28.025 28.1535 26.92 28.1535 25.5C28.1535 24.738 27.915 24.044 27.438 23.418C26.961 22.792 26.2725 22.258 25.3725 21.816C25.1955 21.72 25.008 21.701 24.81 21.759C24.612 21.817 24.462 21.9285 24.36 22.0935C24.258 22.2585 24.236 22.4445 24.294 22.6515C24.352 22.8585 24.4695 23.01 24.6465 23.106C25.2845 23.419 25.7785 23.7795 26.1285 24.1875C26.4785 24.5955 26.6535 25.033 26.6535 25.5C26.6535 26.344 26.135 27.055 25.098 27.633C24.06 28.211 22.8285 28.5 21.4035 28.5C21.1905 28.5 21.012 28.5715 20.868 28.7145C20.724 28.8575 20.6525 29.036 20.6535 29.25C20.6545 29.464 20.726 29.6425 20.868 29.7855C21.01 29.9285 21.1885 30 21.4035 30ZM15 9.75C15 10.273 14.7235 10.7455 14.1705 11.1675C13.6175 11.5895 12.525 12.163 10.893 12.888C9.027 13.705 7.745 14.4265 7.047 15.0525C6.349 15.6785 6 16.411 6 17.25C6 17.842 6.1695 18.3545 6.5085 18.7875C6.8475 19.2205 7.254 19.5855 7.728 19.8825C7.899 20.0045 8.079 20.042 8.268 19.995C8.457 19.948 8.612 19.839 8.733 19.668C8.854 19.497 8.892 19.312 8.847 19.113C8.802 18.914 8.6945 18.7545 8.5245 18.6345C8.1755 18.4135 7.9175 18.1875 7.7505 17.9565C7.5835 17.7255 7.5 17.49 7.5 17.25C7.5 16.796 7.778 16.3515 8.334 15.9165C8.889 15.4825 9.94 14.9335 11.487 14.2695C13.456 13.4355 14.784 12.6835 15.471 12.0135C16.157 11.3455 16.5 10.591 16.5 9.75C16.5 8.664 16.0125 7.7675 15.0375 7.0605C14.0625 6.3535 12.8 6 11.25 6C10.317 6 9.431 6.171 8.592 6.513C7.752 6.856 7.1425 7.276 6.7635 7.773C6.6235 7.945 6.564 8.13 6.585 8.328C6.606 8.526 6.7025 8.6925 6.8745 8.8275C7.0445 8.9475 7.2245 8.9975 7.4145 8.9775C7.6025 8.9565 7.7665 8.8755 7.9065 8.7345C8.3145 8.3265 8.798 8.019 9.357 7.812C9.917 7.604 10.548 7.5 11.25 7.5C12.429 7.5 13.349 7.722 14.01 8.166C14.67 8.612 15 9.14 15 9.75Z" fill="#6B7280"/>
</svg>
