<svg width="36" height="36" viewBox="0 0 36 36" fill="none" xmlns="http://www.w3.org/2000/svg">
<path d="M11.106 27V25.5H21.987C23.543 25.5 24.868 24.9665 25.962 23.8995C27.058 22.8325 27.606 21.5295 27.606 19.9905C27.606 18.4515 27.0585 17.1535 25.9635 16.0965C24.8675 15.0385 23.542 14.5095 21.987 14.5095H10.374L14.8215 18.957L13.7595 20.019L7.5 13.7595L13.7595 7.5L14.8215 8.562L10.374 13.0095H21.987C23.95 13.0095 25.6275 13.6865 27.0195 15.0405C28.4095 16.3945 29.1045 18.0445 29.1045 19.9905C29.1045 21.9365 28.4095 23.5915 27.0195 24.9555C25.6295 26.3195 23.9515 27.001 21.9855 27H11.106Z" fill="#6B7280"/>
</svg>
