<svg width="36" height="36" viewBox="0 0 36 36" fill="none" xmlns="http://www.w3.org/2000/svg">
<path d="M14.013 27C12.05 27 10.3725 26.318 8.98051 24.954C7.58851 23.59 6.89351 21.9355 6.89551 19.9905C6.89751 18.0455 7.59251 16.3955 8.98051 15.0405C10.3735 13.6865 12.0515 13.0095 14.0145 13.0095H25.629L21.18 8.562L22.242 7.5L28.5 13.7595L22.2405 20.019L21.1785 18.9585L25.6275 14.5095H14.013C12.457 14.5095 11.132 15.0385 10.038 16.0965C8.94201 17.1545 8.39401 18.4525 8.39401 19.9905C8.39401 21.5285 8.94151 22.8315 10.0365 23.8995C11.1325 24.9665 12.458 25.5 14.013 25.5H24.894V27H14.013Z" fill="#6B7280"/>
</svg>
