<svg width="36" height="36" viewBox="0 0 36 36" fill="none" xmlns="http://www.w3.org/2000/svg">
<path d="M18 1.5L9 16.5H27L18 1.5ZM18 5.3305L23.702 14.5H12.298L18 5.3305ZM10.125 30C9.03098 30 7.98177 29.5654 7.20818 28.7918C6.4346 28.0182 6 26.969 6 25.875C6 24.781 6.4346 23.7318 7.20818 22.9582C7.98177 22.1846 9.03098 21.75 10.125 21.75C11.219 21.75 12.2682 22.1846 13.0418 22.9582C13.8154 23.7318 14.25 24.781 14.25 25.875C14.25 26.969 13.8154 28.0182 13.0418 28.7918C12.2682 29.5654 11.219 30 10.125 30ZM10.125 33C12.0147 33 13.8269 32.2493 15.1631 30.9131C16.4993 29.5769 17.25 27.7647 17.25 25.875C17.25 23.9853 16.4993 22.1731 15.1631 20.8369C13.8269 19.5007 12.0147 18.75 10.125 18.75C8.23533 18.75 6.42306 19.5007 5.08686 20.8369C3.75067 22.1731 3 23.9853 3 25.875C3 27.7647 3.75067 29.5769 5.08686 30.9131C6.42306 32.2493 8.23533 33 10.125 33ZM21.5 22.25V30.25H29.5V22.25H21.5ZM19.5 32.25V20.25H31.5V32.25H19.5Z" fill="#6B7280"/>
</svg>
