<svg width="30" height="45" viewBox="0 0 30 45" fill="none" xmlns="http://www.w3.org/2000/svg">
<path d="M24.7238 3.9962C19.22 -1.00098 10.9862 -1.39784 5.31865 3.29372C1.02459 6.84945 -0.666647 11.5136 0.235179 16.7822C1.27875 22.8742 4.95205 27.0617 11.409 28.884C12.3353 29.1463 13.3153 29.2444 14.4835 29.4291C14.6791 29.4611 14.8795 29.477 15.0774 29.4884C14.8575 30.1293 14.2807 31.735 13.7039 32.6359C13.3691 33.1582 14.1585 33.2973 15.1141 33.2951C15.2412 35.033 15.7397 42.3452 15.3169 44.9019L16.0012 45C16.4387 42.352 15.9401 35.0741 15.8057 33.2722C16.1528 33.2517 16.49 33.2221 16.7809 33.1924C17.1621 33.1537 17.3601 32.7522 17.1499 32.4535C16.5682 31.6232 15.6542 30.1978 15.6835 29.4976C16.0966 29.493 16.5731 29.4862 16.8297 29.4748C19.765 29.3562 22.3507 28.4438 24.5136 26.544C31.4569 20.4338 31.5571 10.2022 24.7238 3.9962Z" fill="#4C4039"/>
</svg>
