<svg width="1" height="2" viewBox="0 0 1 2" fill="none" xmlns="http://www.w3.org/2000/svg">
<path d="M0.376236 0C0.55996 0.0249504 0.725578 0.116171 0.845908 0.265359C1.08657 0.562432 1.04087 0.922977 0.735031 1.13369C0.517001 1.28442 0.271163 1.32497 0.0124581 1.22837V1.22588C0.00789913 1.22437 0.000958092 1.22141 0 1.2209L0.376236 0Z" fill="#EFE3C2"/>
<path d="M0.376236 0C0.55996 0.0249504 0.725578 0.116171 0.845908 0.265359C1.08657 0.562432 1.04087 0.922977 0.735031 1.13369C0.517001 1.28442 0.271163 1.32497 0.0124581 1.22837V1.22588C0.00789913 1.22437 0.000958092 1.22141 0 1.2209L0.376236 0Z" stroke="#111827"/>
</svg>
