<svg width="2" height="2" viewBox="0 0 2 2" fill="none" xmlns="http://www.w3.org/2000/svg">
<path d="M0.693171 0.0389735C1.11106 -0.0719263 1.52737 0.0557685 1.78721 0.374424C2.1199 0.783225 2.05769 1.28203 1.6341 1.57147C1.33241 1.77904 0.992729 1.83324 0.634711 1.70091C0.267506 1.5652 0.0642969 1.31485 0.00974337 0.981296C0.00249493 0.937288 0.00318081 0.893354 0.00139191 0.86716H0C-0.00181796 0.487792 0.289585 0.146897 0.693171 0.0389735Z" fill="#EFE3C2"/>
<path d="M0.693171 0.0389735C1.11106 -0.0719263 1.52737 0.0557685 1.78721 0.374424C2.1199 0.783225 2.05769 1.28203 1.6341 1.57147C1.33241 1.77904 0.992729 1.83324 0.634711 1.70091C0.267506 1.5652 0.0642969 1.31485 0.00974337 0.981296C0.00249493 0.937288 0.00318081 0.893354 0.00139191 0.86716H0C-0.00181796 0.487792 0.289585 0.146897 0.693171 0.0389735Z" stroke="#111827"/>
</svg>
