<svg width="27" height="42" viewBox="0 0 27 42" fill="none" xmlns="http://www.w3.org/2000/svg">
<path d="M24.0326 6.67682C20.1573 0.26178 12.8328 -1.83761 6.77768 1.7273C2.01835 4.53023 -0.802075 10.9947 0.202297 16.7961C1.41862 23.8226 6.45734 29.1407 13.5506 29.1227C13.3651 29.5071 13.1122 29.9769 12.8087 30.3702C12.5269 30.7388 13.0833 31.031 13.8155 31.1816C13.9215 33.2675 14.119 38.3227 13.7505 41.9393L14.4297 42C14.7958 38.4126 14.6127 33.4474 14.5044 31.276C14.7741 31.2963 15.0415 31.2985 15.2799 31.276C15.6123 31.2468 15.7857 30.9546 15.6027 30.7366C15.2342 30.296 14.7139 29.6285 14.4634 29.098C14.7789 29.0867 15.1234 29.0755 15.2727 29.0755C17.3778 29.0553 19.2396 28.2978 20.8654 26.9244C26.605 22.0716 27.9803 13.2155 24.0302 6.67682H24.0326Z" fill="#4C4039"/>
</svg>
