<svg width="16" height="23" viewBox="0 0 16 23" fill="none" xmlns="http://www.w3.org/2000/svg">
<path d="M2.82008 1.68391C5.82552 -0.713995 10.1924 -0.511983 13.1111 2.04212C16.7347 5.21407 16.6809 10.4435 12.9989 13.5665C11.852 14.5376 10.4811 15.0043 8.92462 15.0649C8.78853 15.0707 8.53536 15.0745 8.31634 15.0768C8.30106 15.4347 8.78592 16.1628 9.0943 16.587C9.20574 16.7397 9.10093 16.9452 8.89882 16.9651C8.74465 16.9803 8.56579 16.9953 8.38184 17.0058C8.45312 17.9267 8.71702 21.6468 8.48503 23.0002L8.12285 22.9496C8.34693 21.6426 8.0821 17.9063 8.01469 17.0177C7.50801 17.0188 7.08996 16.9472 7.2675 16.6803C7.57327 16.2198 7.87923 15.3993 7.99584 15.0718C7.89086 15.066 7.78397 15.0574 7.68029 15.0411C7.0609 14.9467 6.54109 14.8973 6.04996 14.7632C2.62593 13.8318 0.678423 11.691 0.125028 8.57732C-0.353089 5.88473 0.54336 3.50119 2.82008 1.68391Z" fill="#4C4039"/>
<path d="M2.82008 1.68391C5.82552 -0.713995 10.1924 -0.511983 13.1111 2.04212C16.7347 5.21407 16.6809 10.4435 12.9989 13.5665C11.852 14.5376 10.4811 15.0043 8.92462 15.0649C8.78853 15.0707 8.53536 15.0745 8.31634 15.0768C8.30106 15.4347 8.78592 16.1628 9.0943 16.587C9.20574 16.7397 9.10093 16.9452 8.89882 16.9651C8.74465 16.9803 8.56579 16.9953 8.38184 17.0058C8.45312 17.9267 8.71702 21.6468 8.48503 23.0002L8.12285 22.9496C8.34693 21.6426 8.0821 17.9063 8.01469 17.0177C7.50801 17.0188 7.08996 16.9472 7.2675 16.6803C7.57327 16.2198 7.87923 15.3993 7.99584 15.0718C7.89086 15.066 7.78397 15.0574 7.68029 15.0411C7.0609 14.9467 6.54109 14.8973 6.04996 14.7632C2.62593 13.8318 0.678423 11.691 0.125028 8.57732C-0.353089 5.88473 0.54336 3.50119 2.82008 1.68391Z" stroke="#111827"/>
</svg>
