<svg width="6" height="7" viewBox="0 0 6 7" fill="none" xmlns="http://www.w3.org/2000/svg">
<path d="M1.43715 6.74359C1.34135 6.74359 1.24554 6.70976 1.17304 6.63968C0.561969 6.0525 0.178764 5.29376 0.0337641 4.38519C0.0104605 4.23779 0.00787248 4.09039 0.00269391 3.98407C0.00269391 3.94783 0.00269138 3.91641 0.000102096 3.88983C-0.0128443 2.18628 1.2067 0.663954 2.96482 0.175844C3.92286 -0.0899591 4.89126 -0.0537132 5.77162 0.279749C5.95805 0.35224 6.04868 0.550384 5.97359 0.72678C5.89591 0.90076 5.68358 0.985334 5.49456 0.915258C4.77215 0.63979 3.97206 0.610794 3.17715 0.833102C1.72973 1.23664 0.727683 2.4835 0.735451 3.8705C0.735451 3.88742 0.735453 3.92608 0.738043 3.96957C0.738043 4.06381 0.743228 4.1798 0.761353 4.28854C0.88046 5.05212 1.19635 5.6828 1.69867 6.16607C1.84108 6.30139 1.8359 6.51887 1.6909 6.64935C1.6184 6.71459 1.52778 6.74601 1.43456 6.74601L1.43715 6.74359Z" fill="#EFE3C2"/>
</svg>
