<svg width="1" height="2" viewBox="0 0 1 2" fill="none" xmlns="http://www.w3.org/2000/svg">
<path d="M0.314805 0.00110072C0.528924 -0.0118251 0.728927 0.0721795 0.864062 0.238855C1.07683 0.501357 1.03637 0.820946 0.766098 1.00715C0.573461 1.14033 0.356257 1.17505 0.127683 1.08971V1.08861C0.0804072 1.07183 0.038705 1.05017 0 1.02697L0.314805 0.00110072Z" fill="#EFE3C2"/>
<path d="M0.314805 0.00110072C0.528924 -0.0118251 0.728927 0.0721795 0.864062 0.238855C1.07683 0.501357 1.03637 0.820946 0.766098 1.00715C0.573461 1.14033 0.356257 1.17505 0.127683 1.08971V1.08861C0.0804072 1.07183 0.038705 1.05017 0 1.02697L0.314805 0.00110072Z" stroke="#111827"/>
</svg>
