<svg width="6" height="5" viewBox="0 0 6 5" fill="none" xmlns="http://www.w3.org/2000/svg">
<path d="M1.92926 0.112263C3.09411 -0.202785 4.24995 0.155749 4.97492 1.05818C5.90218 2.21218 5.72884 3.615 4.5477 4.4344C3.70609 5.01782 2.76364 5.16973 1.76191 4.79613C0.738507 4.41387 0.175222 3.71073 0.021829 2.76812C0.00148282 2.64606 0.0054226 2.52037 0 2.44588H0.00103947C-0.00574875 1.37614 0.803777 0.416334 1.92926 0.112263Z" fill="#4C4039"/>
<path d="M1.92926 0.112263C3.09411 -0.202785 4.24995 0.155749 4.97492 1.05818C5.90218 2.21218 5.72884 3.615 4.5477 4.4344C3.70609 5.01782 2.76364 5.16973 1.76191 4.79613C0.738507 4.41387 0.175222 3.71073 0.021829 2.76812C0.00148282 2.64606 0.0054226 2.52037 0 2.44588H0.00103947C-0.00574875 1.37614 0.803777 0.416334 1.92926 0.112263Z" stroke="#111827"/>
</svg>
