<svg width="2" height="2" viewBox="0 0 2 2" fill="none" xmlns="http://www.w3.org/2000/svg">
<path d="M0.693356 0.0397953C1.11116 -0.0716883 1.52785 0.0564587 1.78773 0.376525C2.11896 0.786365 2.05871 1.28231 1.63314 1.57344C1.33135 1.78014 0.991391 1.83471 0.633663 1.70354C0.266013 1.56875 0.0637429 1.31837 0.00765294 0.984168C-0.000343388 0.941013 0.00199908 0.894815 0 0.867843L0.00153059 0.866313C-0.000253207 0.487186 0.289872 0.147746 0.693356 0.0397953Z" fill="#EFE3C2"/>
<path d="M0.693356 0.0397953C1.11116 -0.0716883 1.52785 0.0564587 1.78773 0.376525C2.11896 0.786365 2.05871 1.28231 1.63314 1.57344C1.33135 1.78014 0.991391 1.83471 0.633663 1.70354C0.266013 1.56875 0.0637429 1.31837 0.00765294 0.984168C-0.000343388 0.941013 0.00199908 0.894815 0 0.867843L0.00153059 0.866313C-0.000253207 0.487186 0.289872 0.147746 0.693356 0.0397953Z" stroke="#111827"/>
</svg>
