<svg width="3" height="2" viewBox="0 0 3 2" fill="none" xmlns="http://www.w3.org/2000/svg">
<path d="M0.789335 0.0446794C1.26583 -0.0814522 1.73987 0.0622701 2.03717 0.42339C2.41647 0.884543 2.34515 1.44591 1.86164 1.77335C1.5171 2.00697 1.13107 2.06796 0.721253 1.91802C0.301723 1.76558 0.0710804 1.48473 0.00851036 1.10741C0.000190083 1.05876 0.00137599 1.0087 0 0.978691C-0.00277882 0.551281 0.329441 0.167154 0.789335 0.0446794Z" fill="#E56D60"/>
<path d="M0.789335 0.0446794C1.26583 -0.0814522 1.73987 0.0622701 2.03717 0.42339C2.41647 0.884543 2.34515 1.44591 1.86164 1.77335C1.5171 2.00697 1.13107 2.06796 0.721253 1.91802C0.301723 1.76558 0.0710804 1.48473 0.00851036 1.10741C0.000190083 1.05876 0.00137599 1.0087 0 0.978691C-0.00277882 0.551281 0.329441 0.167154 0.789335 0.0446794Z" stroke="#111827"/>
</svg>
