<svg width="7" height="8" viewBox="0 0 7 8" fill="none" xmlns="http://www.w3.org/2000/svg">
<path d="M1.63806 7.8973C1.54351 7.8973 1.44896 7.86391 1.37741 7.79476C0.659363 7.10557 0.209624 6.21608 0.0409713 5.14535C0.0128625 4.97365 0.0103073 4.80194 0.00519665 4.67555C0.00519665 4.63263 0.00519556 4.59209 8.48718e-05 4.56109C-0.0126918 2.56509 1.4183 0.778935 3.48046 0.206604C4.60481 -0.105793 5.7445 -0.0628658 6.7743 0.328227C6.96084 0.399768 7.04772 0.595309 6.97361 0.769392C6.89951 0.943476 6.68741 1.02456 6.50087 0.955407C5.62439 0.621547 4.6508 0.585781 3.68744 0.855253C1.93192 1.34412 0.713024 2.86079 0.725801 4.54201C0.725801 4.56347 0.728357 4.61116 0.730913 4.66124C0.733468 4.77571 0.738579 4.91641 0.759022 5.04756C0.904676 5.97283 1.28798 6.73833 1.89871 7.32259C2.03925 7.45613 2.03414 7.67076 1.89104 7.79953C1.81949 7.86392 1.73005 7.89491 1.63806 7.89491V7.8973Z" fill="#EFE3C2"/>
</svg>
