<svg width="4" height="4" viewBox="0 0 4 4" fill="none" xmlns="http://www.w3.org/2000/svg">
<path d="M1.82907 0.104871C2.4198 -0.0533236 3.01836 -0.031414 3.55944 0.16656C3.65747 0.202795 3.70325 0.301494 3.66431 0.389667C3.62537 0.477659 3.51443 0.519045 3.41653 0.484257C2.95604 0.315195 2.44419 0.296463 1.93805 0.432849C1.01552 0.68046 0.374728 1.44945 0.381442 2.30099C0.381478 2.31203 0.383207 2.33571 0.384526 2.36062C0.385869 2.4186 0.388178 2.49057 0.39892 2.557C0.475477 3.02525 0.676711 3.41273 0.997301 3.70852C1.07102 3.77603 1.069 3.88487 0.994217 3.95013C0.956617 3.98275 0.9089 3.99846 0.860558 3.99846V3.99949C0.810957 3.99943 0.76135 3.98305 0.723814 3.94808C0.346528 3.59906 0.110248 3.14857 0.0215911 2.60635C0.00681973 2.51938 0.00577013 2.43184 0.00308444 2.36782C0.00308435 2.34623 0.00266452 2.32586 0 2.31024C-0.00671424 1.29927 0.745393 0.394757 1.82907 0.104871Z" fill="#EFE3C2"/>
<path d="M1.82907 0.104871C2.4198 -0.0533236 3.01836 -0.031414 3.55944 0.16656C3.65747 0.202795 3.70325 0.301494 3.66431 0.389667C3.62537 0.477659 3.51443 0.519045 3.41653 0.484257C2.95604 0.315195 2.44419 0.296463 1.93805 0.432849C1.01552 0.68046 0.374728 1.44945 0.381442 2.30099C0.381478 2.31203 0.383207 2.33571 0.384526 2.36062C0.385869 2.4186 0.388178 2.49057 0.39892 2.557C0.475477 3.02525 0.676711 3.41273 0.997301 3.70852C1.07102 3.77603 1.069 3.88487 0.994217 3.95013C0.956617 3.98275 0.9089 3.99846 0.860558 3.99846V3.99949C0.810957 3.99943 0.76135 3.98305 0.723814 3.94808C0.346528 3.59906 0.110248 3.14857 0.0215911 2.60635C0.00681973 2.51938 0.00577013 2.43184 0.00308444 2.36782C0.00308435 2.34623 0.00266452 2.32586 0 2.31024C-0.00671424 1.29927 0.745393 0.394757 1.82907 0.104871Z" stroke="#111827"/>
</svg>
