<svg width="18" height="23" viewBox="0 0 18 23" fill="none" xmlns="http://www.w3.org/2000/svg">
<path d="M4.49051 0.987323C8.50247 -1.05025 13.3571 0.14994 15.9246 3.81497C18.5421 7.55153 17.6307 12.6129 13.8274 15.3854C12.7505 16.1709 11.5158 16.6043 10.1213 16.6159C10.0291 16.6159 9.82763 16.6209 9.63302 16.6266C9.81224 17.0481 10.1184 17.5424 10.3399 17.8787C10.4616 18.0618 10.3464 18.3075 10.1262 18.3317C9.94068 18.3523 9.72711 18.3463 9.51733 18.3199C9.48403 18.9396 9.40945 21.255 10.0036 22.8986L9.65753 22.9996C9.01874 21.2329 9.12224 18.8053 9.15554 18.2522C8.66929 18.1256 8.29935 17.8802 8.48686 17.5718C8.66476 17.2806 8.81617 16.9394 8.93395 16.6423C4.25767 16.6318 0.937391 13.6 0.134323 9.59772C-0.531559 6.2828 1.33658 2.58958 4.49051 0.987323Z" fill="#4C4039"/>
<path d="M4.49051 0.987323C8.50247 -1.05025 13.3571 0.14994 15.9246 3.81497C18.5421 7.55153 17.6307 12.6129 13.8274 15.3854C12.7505 16.1709 11.5158 16.6043 10.1213 16.6159C10.0291 16.6159 9.82763 16.6209 9.63302 16.6266C9.81224 17.0481 10.1184 17.5424 10.3399 17.8787C10.4616 18.0618 10.3464 18.3075 10.1262 18.3317C9.94068 18.3523 9.72711 18.3463 9.51733 18.3199C9.48403 18.9396 9.40945 21.255 10.0036 22.8986L9.65753 22.9996C9.01874 21.2329 9.12224 18.8053 9.15554 18.2522C8.66929 18.1256 8.29935 17.8802 8.48686 17.5718C8.66476 17.2806 8.81617 16.9394 8.93395 16.6423C4.25767 16.6318 0.937391 13.6 0.134323 9.59772C-0.531559 6.2828 1.33658 2.58958 4.49051 0.987323Z" stroke="#111827"/>
</svg>
