<svg width="2" height="2" viewBox="0 0 2 2" fill="none" xmlns="http://www.w3.org/2000/svg">
<path d="M0.692878 0.0395566C1.111 -0.0728205 1.52641 0.0561751 1.78643 0.37515C2.11972 0.784365 2.05821 1.28251 1.6333 1.57333C1.33165 1.7802 0.991223 1.83413 0.632905 1.70221C0.264866 1.56576 0.0639079 1.31669 0.00893213 0.982534C0.00230405 0.939155 0.00166114 0.894415 0 0.868969V0.867693C-0.00333231 0.488531 0.288063 0.147583 0.692878 0.0395566Z" fill="#EFE3C2"/>
<path d="M0.692878 0.0395566C1.111 -0.0728205 1.52641 0.0561751 1.78643 0.37515C2.11972 0.784365 2.05821 1.28251 1.6333 1.57333C1.33165 1.7802 0.991223 1.83413 0.632905 1.70221C0.264866 1.56576 0.0639079 1.31669 0.00893213 0.982534C0.00230405 0.939155 0.00166114 0.894415 0 0.868969V0.867693C-0.00333231 0.488531 0.288063 0.147583 0.692878 0.0395566Z" stroke="#111827"/>
</svg>
