<svg width="33" height="45" viewBox="0 0 33 45" fill="none" xmlns="http://www.w3.org/2000/svg">
<path d="M30.0305 7.46417C25.1887 0.293238 16.0341 -2.055 8.46837 1.9316C2.52061 5.06635 -1.00264 12.2914 0.25308 18.7772C1.76718 26.6084 8.02887 32.5399 16.8479 32.5602C16.6257 33.1416 16.3407 33.8086 16.0051 34.3788C15.6501 34.9828 16.348 35.4628 17.2656 35.7107C17.2028 36.7924 17.0072 41.543 18.2122 45L18.8643 44.8017C17.7438 41.5858 17.8838 37.0561 17.9466 35.8436C18.3426 35.8955 18.7459 35.9067 19.0961 35.8662C19.5114 35.8189 19.7288 35.3388 19.4994 34.9805C19.0816 34.3225 18.5044 33.3557 18.1664 32.5309C18.5334 32.5196 18.9126 32.5083 19.0864 32.5083C21.7162 32.4858 24.0441 31.6384 26.075 30.1015C33.247 24.6771 34.9664 14.7748 30.0305 7.46417Z" fill="#4C4039"/>
</svg>
