<svg width="2" height="2" viewBox="0 0 2 2" fill="none" xmlns="http://www.w3.org/2000/svg">
<path d="M0.693171 0.0402811C1.11174 -0.0719362 1.52501 0.0566267 1.7858 0.375957C2.11895 0.78607 2.05831 1.28251 1.63306 1.57432C1.33059 1.78126 0.992704 1.83593 0.631071 1.70188C0.263018 1.5658 0.061499 1.31694 0.00671352 0.981853C0.000234669 0.93867 0 0.893228 0 0.867723C-0.0019606 0.487357 0.289981 0.148685 0.693171 0.0402811Z" fill="#EFE3C2"/>
<path d="M0.693171 0.0402811C1.11174 -0.0719362 1.52501 0.0566267 1.7858 0.375957C2.11895 0.78607 2.05831 1.28251 1.63306 1.57432C1.33059 1.78126 0.992704 1.83593 0.631071 1.70188C0.263018 1.5658 0.061499 1.31694 0.00671352 0.981853C0.000234669 0.93867 0 0.893228 0 0.867723C-0.0019606 0.487357 0.289981 0.148685 0.693171 0.0402811Z" stroke="#111827"/>
</svg>
