<svg width="3" height="2" viewBox="0 0 3 2" fill="none" xmlns="http://www.w3.org/2000/svg">
<path d="M0.776743 0.044443C1.24639 -0.0813374 1.71242 0.0624954 2.00398 0.423219C2.37732 0.884815 2.30719 1.44617 1.83227 1.77368C1.49331 2.00733 1.11365 2.06753 0.710079 1.91812C0.297244 1.76508 0.0698327 1.48426 0.00909062 1.10704C0.00120249 1.05855 0.00230676 1.00746 0.00101007 0.977747L0 0.978757C-0.00263807 0.550453 0.323035 0.166727 0.776743 0.044443Z" fill="#E7B653"/>
<path d="M0.776743 0.044443C1.24639 -0.0813374 1.71242 0.0624954 2.00398 0.423219C2.37732 0.884815 2.30719 1.44617 1.83227 1.77368C1.49331 2.00733 1.11365 2.06753 0.710079 1.91812C0.297244 1.76508 0.0698327 1.48426 0.00909062 1.10704C0.00120249 1.05855 0.00230676 1.00746 0.00101007 0.977747L0 0.978757C-0.00263807 0.550453 0.323035 0.166727 0.776743 0.044443Z" stroke="#111827"/>
</svg>
