<svg width="6" height="5" viewBox="0 0 6 5" fill="none" xmlns="http://www.w3.org/2000/svg">
<path d="M1.97531 0.112407C3.16835 -0.202986 4.35171 0.157284 5.09433 1.05859C6.04351 2.21244 5.8668 3.61485 4.65671 4.43408C3.79436 5.01742 2.82914 5.16949 1.80288 4.7964C0.754094 4.41432 0.17862 3.71087 0.0218266 2.76871C0.00187139 2.64563 0.00427612 2.52112 0 2.44676V2.44567C-0.00712618 1.37523 0.822356 0.416359 1.97531 0.112407Z" fill="#E56D60"/>
<path d="M1.97531 0.112407C3.16835 -0.202986 4.35171 0.157284 5.09433 1.05859C6.04351 2.21244 5.8668 3.61485 4.65671 4.43408C3.79436 5.01742 2.82914 5.16949 1.80288 4.7964C0.754094 4.41432 0.17862 3.71087 0.0218266 2.76871C0.00187139 2.64563 0.00427612 2.52112 0 2.44676V2.44567C-0.00712618 1.37523 0.822356 0.416359 1.97531 0.112407Z" stroke="#111827"/>
</svg>
