<svg width="14" height="22" viewBox="0 0 14 22" fill="none" xmlns="http://www.w3.org/2000/svg">
<path d="M3.61042 0.887131C6.83622 -0.943346 10.7384 0.134732 12.803 3.42867H12.802C14.906 6.78593 14.1735 11.3329 11.1161 13.8247C10.2501 14.5299 9.25786 14.9185 8.13645 14.9289C8.0569 14.9289 7.87326 14.935 7.70517 14.9407C7.83861 15.2131 8.11599 15.5565 8.31231 15.7827C8.4094 15.8946 8.3172 16.0447 8.14038 16.0597C8.01335 16.0713 7.87049 16.0701 7.72678 16.0597C7.78452 17.1748 7.8825 19.7244 7.68748 21.5662L7.32497 21.5348C7.52129 19.6778 7.41679 17.0816 7.36034 16.0106C6.97026 15.9333 6.6738 15.7833 6.82393 15.594C6.98553 15.3921 7.1201 15.1508 7.21887 14.9535C3.44021 14.9627 0.756186 12.2324 0.108067 8.62472C-0.426977 5.64599 1.07514 2.32645 3.61042 0.887131Z" fill="#4C4039"/>
<path d="M3.61042 0.887131C6.83622 -0.943346 10.7384 0.134732 12.803 3.42867H12.802C14.906 6.78593 14.1735 11.3329 11.1161 13.8247C10.2501 14.5299 9.25786 14.9185 8.13645 14.9289C8.0569 14.9289 7.87326 14.935 7.70517 14.9407C7.83861 15.2131 8.11599 15.5565 8.31231 15.7827C8.4094 15.8946 8.3172 16.0447 8.14038 16.0597C8.01335 16.0713 7.87049 16.0701 7.72678 16.0597C7.78452 17.1748 7.8825 19.7244 7.68748 21.5662L7.32497 21.5348C7.52129 19.6778 7.41679 17.0816 7.36034 16.0106C6.97026 15.9333 6.6738 15.7833 6.82393 15.594C6.98553 15.3921 7.1201 15.1508 7.21887 14.9535C3.44021 14.9627 0.756186 12.2324 0.108067 8.62472C-0.426977 5.64599 1.07514 2.32645 3.61042 0.887131Z" stroke="#111827"/>
</svg>
