<svg width="2" height="2" viewBox="0 0 2 2" fill="none" xmlns="http://www.w3.org/2000/svg">
<path d="M0.551563 0.108176C0.933452 -0.0797763 1.41264 -0.0163502 1.71078 0.247068C2.01952 0.520064 2.08632 0.907872 1.88573 1.26873C1.62924 1.72973 1.09848 1.92351 0.604983 1.73215C0.254655 1.59721 0.0402567 1.35751 0.00534201 1.01098C-0.031288 0.656396 0.125818 0.37514 0.438045 0.169609C0.477983 0.143104 0.522758 0.122258 0.548892 0.108176H0.551563Z" fill="#EFE3C2"/>
<path d="M0.551563 0.108176C0.933452 -0.0797763 1.41264 -0.0163502 1.71078 0.247068C2.01952 0.520064 2.08632 0.907872 1.88573 1.26873C1.62924 1.72973 1.09848 1.92351 0.604983 1.73215C0.254655 1.59721 0.0402567 1.35751 0.00534201 1.01098C-0.031288 0.656396 0.125818 0.37514 0.438045 0.169609C0.477983 0.143104 0.522758 0.122258 0.548892 0.108176H0.551563Z" stroke="#111827"/>
</svg>
