<svg width="4" height="4" viewBox="0 0 4 4" fill="none" xmlns="http://www.w3.org/2000/svg">
<path d="M1.386 0.0819943C2.22329 -0.148833 3.05295 0.114853 3.57416 0.777464C4.23983 1.62465 4.11588 2.65393 3.26693 3.25507C2.6618 3.68332 1.98415 3.79587 1.26548 3.52082C0.530288 3.23996 0.125512 2.72473 0.0158061 2.03208C0.00161325 1.94155 0.00387078 1.84953 0 1.79498C-0.005076 1.00935 0.577064 0.305966 1.386 0.0819943Z" fill="#4CABA2"/>
<path d="M1.386 0.0819943C2.22329 -0.148833 3.05295 0.114853 3.57416 0.777464C4.23983 1.62465 4.11588 2.65393 3.26693 3.25507C2.6618 3.68332 1.98415 3.79587 1.26548 3.52082C0.530288 3.23996 0.125512 2.72473 0.0158061 2.03208C0.00161325 1.94155 0.00387078 1.84953 0 1.79498C-0.005076 1.00935 0.577064 0.305966 1.386 0.0819943Z" stroke="#111827"/>
</svg>
