<svg width="8" height="7" viewBox="0 0 8 7" fill="none" xmlns="http://www.w3.org/2000/svg">
<path d="M2.56765 0.157285C4.11808 -0.283918 5.65673 0.219924 6.621 1.48269C7.85455 3.09849 7.62419 5.06099 6.05297 6.20725C4.93306 7.02394 3.6784 7.23867 2.34525 6.71517C0.981874 6.17968 0.231888 5.19548 0.0290527 3.87502C0.00288523 3.7032 0.00654045 3.52778 0 3.42421C-0.0104677 1.92598 1.06947 0.583332 2.56765 0.157285Z" fill="#E7B653"/>
<path d="M2.56765 0.157285C4.11808 -0.283918 5.65673 0.219924 6.621 1.48269C7.85455 3.09849 7.62419 5.06099 6.05297 6.20725C4.93306 7.02394 3.6784 7.23867 2.34525 6.71517C0.981874 6.17968 0.231888 5.19548 0.0290527 3.87502C0.00288523 3.7032 0.00654045 3.52778 0 3.42421C-0.0104677 1.92598 1.06947 0.583332 2.56765 0.157285Z" stroke="#111827"/>
</svg>
