<svg width="2" height="1" viewBox="0 0 2 1" fill="none" xmlns="http://www.w3.org/2000/svg">
<path d="M0.699487 0.040236C1.1219 -0.0724573 1.54168 0.0570975 1.80443 0.380694C1.87107 0.46065 1.91663 0.545996 1.95299 0.631396L0.00773769 0.99971V0.991972C-0.000213877 0.946793 0 0.903027 0 0.875907C-0.00382389 0.492469 0.291349 0.149279 0.699487 0.040236Z" fill="#EFE3C2"/>
<path d="M0.699487 0.040236C1.1219 -0.0724573 1.54168 0.0570975 1.80443 0.380694C1.87107 0.46065 1.91663 0.545996 1.95299 0.631396L0.00773769 0.99971V0.991972C-0.000213877 0.946793 0 0.903027 0 0.875907C-0.00382389 0.492469 0.291349 0.149279 0.699487 0.040236Z" stroke="#111827"/>
</svg>
