<svg width="5" height="4" viewBox="0 0 5 4" fill="none" xmlns="http://www.w3.org/2000/svg">
<path d="M1.476 0.0894844C2.36594 -0.162206 3.24911 0.125707 3.80259 0.847643C4.51144 1.77054 4.37965 2.89187 3.47711 3.54692C2.83366 4.01364 2.11265 4.13621 1.34718 3.83701C0.563967 3.53093 0.133691 2.96859 0.0167169 2.21449C0.00134427 2.11655 0.00381054 2.01583 0 1.95686H0.000983345C-0.00415399 1.10083 0.615496 0.333237 1.476 0.0894844Z" fill="#4CABA2"/>
<path d="M1.476 0.0894844C2.36594 -0.162206 3.24911 0.125707 3.80259 0.847643C4.51144 1.77054 4.37965 2.89187 3.47711 3.54692C2.83366 4.01364 2.11265 4.13621 1.34718 3.83701C0.563967 3.53093 0.133691 2.96859 0.0167169 2.21449C0.00134427 2.11655 0.00381054 2.01583 0 1.95686H0.000983345C-0.00415399 1.10083 0.615496 0.333237 1.476 0.0894844Z" stroke="#111827"/>
</svg>
