<svg width="3" height="4" viewBox="0 0 3 4" fill="none" xmlns="http://www.w3.org/2000/svg">
<path d="M1.4829 0.0842557C1.96163 -0.0436466 2.44558 -0.0257341 2.88551 0.134809C2.97865 0.169715 3.02399 0.264954 2.98662 0.349909C2.94783 0.433638 2.84214 0.474623 2.74773 0.441104C2.38663 0.30839 1.9863 0.294426 1.58896 0.401454C0.865254 0.595926 0.363868 1.19709 0.367752 1.86552C0.367752 1.8738 0.367461 1.89235 0.368743 1.9131C0.368746 1.9585 0.371581 2.01437 0.380638 2.06674C0.440192 2.43473 0.598335 2.73885 0.849496 2.97175C0.920516 3.03697 0.91797 3.14186 0.845531 3.20469C0.809391 3.23601 0.764104 3.2512 0.717661 3.25128L0.718652 3.25029C0.670806 3.25029 0.623052 3.23343 0.586816 3.19974C0.281282 2.91676 0.0893535 2.55118 0.0168511 2.11333C0.00520061 2.04231 0.00357996 1.97128 0.000991244 1.92004C0.000991244 1.90257 0.00129465 1.88725 0 1.87444C-0.0063996 1.05352 0.603885 0.319472 1.4829 0.0842557Z" fill="#EFE3C2"/>
<path d="M1.4829 0.0842557C1.96163 -0.0436466 2.44558 -0.0257341 2.88551 0.134809C2.97865 0.169715 3.02399 0.264954 2.98662 0.349909C2.94783 0.433638 2.84214 0.474623 2.74773 0.441104C2.38663 0.30839 1.9863 0.294426 1.58896 0.401454C0.865254 0.595926 0.363868 1.19709 0.367752 1.86552C0.367752 1.8738 0.367461 1.89235 0.368743 1.9131C0.368746 1.9585 0.371581 2.01437 0.380638 2.06674C0.440192 2.43473 0.598335 2.73885 0.849496 2.97175C0.920516 3.03697 0.91797 3.14186 0.845531 3.20469C0.809391 3.23601 0.764104 3.2512 0.717661 3.25128L0.718652 3.25029C0.670806 3.25029 0.623052 3.23343 0.586816 3.19974C0.281282 2.91676 0.0893535 2.55118 0.0168511 2.11333C0.00520061 2.04231 0.00357996 1.97128 0.000991244 1.92004C0.000991244 1.90257 0.00129465 1.88725 0 1.87444C-0.0063996 1.05352 0.603885 0.319472 1.4829 0.0842557Z" stroke="#111827"/>
</svg>
