<svg width="6" height="5" viewBox="0 0 6 5" fill="none" xmlns="http://www.w3.org/2000/svg">
<path d="M1.83436 0.111851C2.94185 -0.20334 4.04007 0.156548 4.72927 1.05954C5.60978 2.21348 5.44608 3.61611 4.32254 4.43439C3.52182 5.01831 2.62678 5.17019 1.67472 4.79638C0.701277 4.41413 0.166446 3.71027 0.0203366 2.76781C0.00176342 2.6449 0.00396587 2.51957 0 2.44547C-0.00664034 1.37514 0.763937 0.41527 1.83436 0.111851Z" fill="#4CABA2"/>
<path d="M1.83436 0.111851C2.94185 -0.20334 4.04007 0.156548 4.72927 1.05954C5.60978 2.21348 5.44608 3.61611 4.32254 4.43439C3.52182 5.01831 2.62678 5.17019 1.67472 4.79638C0.701277 4.41413 0.166446 3.71027 0.0203366 2.76781C0.00176342 2.6449 0.00396587 2.51957 0 2.44547C-0.00664034 1.37514 0.763937 0.41527 1.83436 0.111851Z" stroke="#111827"/>
</svg>
