<svg width="2" height="8" viewBox="0 0 2 8" fill="none" xmlns="http://www.w3.org/2000/svg">
<path d="M1.13748 0C0.876877 0.279953 1.5507 1.29873 1.9524 1.85201H1.9492C2.07335 2.02391 1.95624 2.25237 1.73025 2.27496C1.54495 2.29373 1.33181 2.29018 1.12146 2.26641C1.09494 2.90813 1.00973 5.4788 1.24962 7.95274L0.855512 7.98371C0.605843 5.41157 0.703632 2.74009 0.727346 2.19806C0.23226 2.07884 -0.139811 1.85199 0.0512666 1.5647C0.486462 0.912241 0.776476 0 0.776476 0H1.13748Z" fill="#4C4039"/>
<path d="M1.13748 0C0.876877 0.279953 1.5507 1.29873 1.9524 1.85201H1.9492C2.07335 2.02391 1.95624 2.25237 1.73025 2.27496C1.54495 2.29373 1.33181 2.29018 1.12146 2.26641C1.09494 2.90813 1.00973 5.4788 1.24962 7.95274L0.855512 7.98371C0.605843 5.41157 0.703632 2.74009 0.727346 2.19806C0.23226 2.07884 -0.139811 1.85199 0.0512666 1.5647C0.486462 0.912241 0.776476 0 0.776476 0H1.13748Z" stroke="#111827"/>
</svg>
